<?xml version="1.0" standalone="no"?>
<!DOCTYPE svg PUBLIC "-//W3C//DTD SVG 20010904//EN"
 "http://www.w3.org/TR/2001/REC-SVG-20010904/DTD/svg10.dtd">
<svg version="1.0" xmlns="http://www.w3.org/2000/svg"
 width="190.000000pt" height="189.000000pt" viewBox="0 0 190.000000 189.000000"
 preserveAspectRatio="xMidYMid meet">

<g transform="translate(0.000000,189.000000) scale(0.100000,-0.100000)"
fill="#000000" stroke="none">
<path d="M985 1880 c-27 -4 -77 -16 -110 -25 -33 -10 -117 -21 -188 -25 -70
-4 -130 -10 -134 -14 -4 -4 -2 -15 5 -24 38 -52 38 -62 1 -90 -48 -37 -139
-124 -139 -132 0 -4 39 7 88 25 139 52 126 52 163 -2 44 -66 99 -133 108 -133
4 0 13 22 20 49 21 83 67 170 96 181 15 6 85 13 157 17 145 7 145 7 9 59 l-83
31 34 26 c18 14 54 35 78 46 l45 21 -50 -1 c-27 -1 -72 -5 -100 -9z"/>
<path d="M1520 1680 c-1 -61 -7 -62 -106 -25 -49 19 -114 37 -144 41 l-55 7
75 -60 c41 -33 95 -81 119 -106 l44 -46 -28 -38 c-16 -21 -51 -64 -79 -97 -35
-40 -44 -57 -31 -53 29 9 130 24 200 31 l61 7 61 -93 c33 -51 71 -113 84 -138
24 -45 24 -45 27 -16 2 16 -2 74 -8 129 -6 54 -10 100 -8 102 3 3 49 -12 92
-30 35 -15 -34 94 -105 165 -36 36 -79 90 -95 119 -16 30 -45 72 -66 95 l-37
41 -1 -35z"/>
<path d="M263 1608 c-108 -113 -194 -254 -222 -366 -24 -98 -24 -99 19 -32 23
36 45 69 50 73 4 5 22 -18 40 -50 l34 -58 13 105 13 105 53 50 c28 28 68 63
87 78 l35 28 -57 -5 c-38 -3 -58 -1 -58 6 0 6 16 40 35 75 19 35 33 63 32 63
-2 0 -35 -33 -74 -72z"/>
<path d="M766 1369 c-10 -41 -20 -112 -24 -158 l-7 -84 -85 -38 c-175 -78
-182 -81 -172 -91 5 -5 65 -31 133 -57 l124 -47 12 -87 c11 -87 41 -237 48
-237 1 0 38 59 81 130 59 100 81 129 93 125 14 -6 103 -27 285 -70 l59 -14
-24 27 c-14 15 -49 54 -80 87 -30 33 -72 81 -93 107 l-38 48 48 67 c27 38 72
99 101 137 29 38 51 71 49 73 -5 5 -146 -31 -254 -64 -45 -14 -84 -24 -86 -22
-5 5 -106 163 -133 208 l-21 34 -16 -74z"/>
<path d="M148 1085 c-19 -38 -41 -86 -47 -107 -8 -23 -20 -38 -34 -42 -12 -3
-33 -14 -46 -24 l-23 -19 21 -41 c11 -22 25 -43 31 -47 5 -3 10 -29 10 -56 0
-53 26 -194 41 -219 7 -12 8 -11 9 5 0 11 14 49 30 84 l31 64 22 -20 c23 -20
85 -61 125 -82 l23 -12 -21 40 c-21 41 -70 172 -70 186 0 4 44 53 98 108 l97
99 -75 -6 c-41 -4 -94 -9 -117 -12 -47 -7 -40 -19 -61 116 l-8 55 -36 -70z"/>
<path d="M1712 948 c-18 -46 -47 -112 -65 -148 l-32 -65 -143 0 c-78 0 -142
-3 -142 -6 0 -3 41 -46 91 -94 l91 -88 -17 -31 c-10 -17 -37 -59 -61 -94 -31
-44 -39 -62 -28 -62 23 0 162 57 194 80 38 27 49 25 86 -11 l32 -31 16 29 c8
17 20 61 27 99 7 38 20 78 29 89 33 39 62 97 81 158 25 83 24 91 -8 61 -16
-15 -40 -32 -55 -40 -25 -13 -27 -13 -32 14 -2 15 -8 66 -11 113 -4 47 -10 91
-14 97 -4 8 -20 -21 -39 -70z"/>
<path d="M364 513 c7 -21 30 -72 50 -112 21 -40 36 -74 34 -76 -15 -12 -81
-25 -126 -25 -48 0 -53 -2 -41 -16 21 -26 125 -74 202 -93 61 -16 80 -26 127
-71 52 -49 98 -79 148 -94 20 -7 21 -5 13 16 -5 13 -10 44 -12 68 l-4 45 99 5
98 5 -92 45 c-50 25 -96 50 -101 56 -8 9 6 148 26 257 4 27 3 26 -55 -22 -78
-65 -145 -111 -162 -111 -8 0 -55 32 -104 71 -49 39 -95 76 -101 81 -10 8 -10
1 1 -29z"/>
<path d="M1353 307 c-12 -17 -49 -61 -82 -96 l-60 -64 -122 6 -123 6 29 -24
c17 -14 45 -35 64 -47 l33 -21 -23 -18 c-13 -10 -42 -25 -64 -34 l-40 -15 65
5 c90 8 211 38 298 74 76 31 194 105 226 139 16 19 12 18 -44 -5 -34 -13 -77
-27 -96 -30 l-33 -5 -3 81 -3 81 -22 -33z"/>
</g>
</svg>
